<svg version="1.0" width="600.000000pt" height="220.000000pt" viewBox="0 0" preserveAspectRatio="xMidYMid meet" xmlns="http://www.w3.org/2000/svg">
  <defs></defs>
  <g transform="translate(0.000000,450.000000) scale(0.100000,-0.100000)" stroke="none" fill="white">
    <path d="M 1010 4400 L 1010 3085 L 1010 1770 L 1760.5 1770 L 2511 1770 L 2511 1792.5 L 2511 1815 L 1785.5 1817.5 L 1060 1820 L 1060 3085 L 1060 4350 L 1785.5 4350 L 2511 4350 L 2511 4372.5 L 2511 4395 L 1760.5 4397.5 Z"></path>
    <path d="M 5800 4400 L 5800 4375 L 5800 4350 L 6525 4350 L 7250 4350 L 7250 3085 L 7250 1820 L 6525 1820 L 5800 1820 L 5800 1795 L 5800 1770 L 6545 1770 L 7300 1770 L 7300 3085 L 7300 4400 L 6545 4400 L 5800 4400 Z"></path>
    <path d="M3585 3651 c-99 -29 -165 -69 -246 -150 -115 -115 -162 -231 -162
-396 0 -166 48 -282 162 -395 112 -111 215 -156 376 -166 290 -19 549 167 604
434 16 76 14 218 -4 287 -49 185 -207 339 -401 389 -84 22 -250 20 -329 -3z
m326 -101 c194 -66 309 -228 309 -434 -1 -146 -39 -246 -130 -337 -142 -143
-361 -179 -547 -92 -62 28 -155 110 -190 166 -79 126 -89 314 -23 455 53 114
184 224 296 251 75 17 220 13 285 -9z"></path>
    <path d="M 1840 3108 L 1840 2560 L 1895 2560 L 1950 2560 L 1952 3038 L 1955 3515 L 2159 3038 L 2364 2560 L 2410 2560 L 2457 2560 L 2663 3043 L 2869 3525 L 2870 3043 L 2870 2560 L 2925 2560 L 2980 2560 L 2980 3105 L 2980 3655 L 2894 3655 L 2807 3655 L 2611 3188 C 2503 2937 2412 2735 2408 2738 C 2404 2742 2314 2948 2207 3195 L 2013 3655 L 1927 3655 L 1840 3655 L 1840 3108 Z"></path>
    <path d="M 4540 3655 L 4540 3107.5 L 4540 2560 L 4820 2560 L 5100 2560 L 5100 2610 L 5100 2660 L 4875 2660 L 4650 2660 L 4650 3157.5 L 4650 3655 L 4595 3655 Z"></path>
    <path d="M 5350 3655 L 5295 3655 L 5240 3655 L 5240 3107.5 L 5240 2560 L 5525 2560 L 5810 2560 L 5810 2610 L 5810 2660 L 5580 2660 L 5350 2660 L 5350 3157.5 Z"></path>
    <path d="M 5690 3655 L 5875 3288.5 L 6060 2922 L 6060 2741 L 6060 2560 L 6115 2560 L 6170 2560 L 6170 2741 L 6170 2922 L 6351.5 3288.5 L 6533 3655 L 6476 3655 L 6419 3655 C 6419 3655 6342.25 3504.75 6265.125 3355 C 6188 3205.25 6110.5 3056 6109 3058 C 6107 3060 6030.75 3209.25 5955 3358 C 5879.25 3506.75 5804 3655 5804 3655 L 5747 3655 Z"></path>
    <path d="M 3539 1970 C 3517 1963.5 3498.5 1954 3482.5 1940.75 C 3466.5 1927.5 3453 1910.5 3441 1889 C 3431.5 1872.5 3426 1859.5 3423.25 1844.875 C 3420.5 1830.25 3418 1814 3420 1791 C 3424.5 1756 3433 1727 3448.125 1703.5 C 3463.25 1680 3485 1662 3514 1649 C 3573 1622 3634.25 1628.5 3680.875 1657.75 C 3727.5 1687 3759.5 1739 3760 1803 C 3760 1862 3732.5 1912.25 3691.125 1943.5 C 3649.75 1974.75 3594.5 1987 3539 1970 Z M 3647 1930 C 3696 1908 3724 1865 3729.125 1819.125 C 3734.25 1773.25 3716.5 1724.5 3674 1691 C 3631.5 1657.5 3578.75 1654.5 3535.25 1673.5 C 3491.75 1692.5 3457.5 1733.5 3452 1788 C 3448.5 1824.5 3455.25 1856.25 3471.125 1881.75 C 3487 1907.25 3512 1926.5 3545 1938 C 3566.5 1945.5 3610 1950 3647 1930 Z"></path>
    <path d="M 5449.37 1960.326 C 5444.161 1956.537 5438.381 1951.455 5433.216 1946.149 C 5428.051 1940.843 5423.5 1935.313 5420.75 1930.625 C 5418 1925.938 5416.063 1920.781 5414.688 1914.672 C 5413.313 1908.563 5411.4 1900.95 5410.9 1892.45 C 5409.9 1879.7 5411.75 1869.125 5414.578 1859.25 C 5417.406 1849.375 5422.313 1840.75 5429.625 1833 C 5436.938 1825.25 5446.656 1818.375 5459.109 1812 C 5471.563 1805.625 5486.75 1799.75 5505 1794 C 5520.5 1789 5536.097 1781.653 5546.644 1777.262 C 5557.191 1772.872 5562.688 1769.54 5569.375 1764.977 C 5576.063 1760.415 5581.094 1757.469 5585.016 1751.953 C 5588.938 1746.438 5591.75 1740.25 5594 1733 C 5595.25 1728.75 5595.938 1724.813 5595.969 1721 C 5596 1717.188 5595.375 1713.5 5594 1709.75 C 5592.625 1706 5590.5 1702.188 5587.531 1698.125 C 5584.563 1694.063 5580.75 1689.75 5576 1685 C 5567 1676 5557.188 1669.375 5546.844 1665.109 C 5536.5 1660.844 5525.625 1658.938 5514.5 1659.375 C 5503.375 1659.813 5492 1662.594 5480.656 1667.703 C 5469.313 1672.813 5458 1680.25 5447 1690 C 5436.75 1699 5428.563 1705.813 5422.109 1710.531 C 5415.656 1715.25 5410.938 1717.875 5407.625 1718.5 C 5404.313 1719.125 5395.942 1712.987 5395.114 1709.706 C 5394.286 1706.425 5390.794 1709.742 5391.794 1702.742 C 5393.294 1691.492 5410 1677.125 5419.859 1667.75 C 5429.719 1658.375 5442.938 1650.25 5457.875 1644 C 5472.813 1637.75 5489.469 1633.375 5506.203 1631.5 C 5522.938 1629.625 5539.75 1630.25 5555 1634 C 5564.25 1636.25 5573.563 1640.688 5582.328 1646.594 C 5591.094 1652.5 5599.313 1659.875 5606.375 1668 C 5613.438 1676.125 5619.344 1685 5623.484 1693.906 C 5627.625 1702.813 5630 1711.75 5630 1720 C 5630 1730.5 5628.25 1739.938 5624.438 1748.672 C 5620.625 1757.406 5614.75 1765.438 5606.5 1773.125 C 5598.25 1780.813 5587.625 1788.156 5574.313 1795.516 C 5561 1802.875 5545 1810.25 5526 1818 C 5506.75 1825.75 5491.375 1832.563 5479.281 1839 C 5467.188 1845.438 5458.375 1851.5 5452.25 1857.75 C 5446.125 1864 5440.488 1869.338 5439.144 1876.525 C 5437.8 1883.713 5440.75 1892.75 5443 1902 C 5446.25 1914.75 5454.063 1924.625 5464.547 1931.516 C 5475.031 1938.406 5488.188 1942.313 5502.125 1943.125 C 5516.063 1943.938 5530.781 1941.656 5544.391 1936.172 C 5558 1930.688 5570.5 1922 5580 1910 C 5582.25 1907 5584.625 1904.5 5587.031 1902.5 C 5589.438 1900.5 5591.875 1899 5594.25 1898 C 5596.625 1897 5596.391 1895.409 5598.547 1895.409 C 5600.703 1895.409 5610.344 1902.457 5612.094 1903.457 C 5619.594 1908.207 5615 1910.25 5610.703 1918.828 C 5606.406 1927.406 5598.678 1937.518 5586.99 1946.58 C 5575.303 1955.643 5562.03 1964.652 5547.913 1970.485 C 5533.795 1976.319 5517.468 1978.522 5504.218 1978.522 C 5501.468 1978.522 5496.767 1978.636 5491.566 1978.234 C 5486.364 1977.833 5480.663 1976.916 5475.913 1974.853 C 5471.163 1972.791 5466.801 1970.813 5462.49 1968.524 C 5458.178 1966.235 5453.918 1963.634 5449.37 1960.326 Z"></path>
    <path d="M 2690 1635 L 2705 1635 L 2720 1635 L 2720 1707.5 L 2720 1780 L 2787.5 1780 L 2855 1780 L 2855 1797.5 L 2855 1815 L 2787.5 1815 L 2720 1815 L 2720 1877.5 L 2720 1940 L 2787.5 1940 L 2855 1940 L 2855 1955 L 2855 1970 L 2772.5 1970 L 2690 1970" style=""></path>
    <path d="M 2689.5 1800 C 2689.5 1726.997 2690 1684.724 2692.127 1661.33 C 2693.192 1649.613 2694.683 1642.544 2696.732 1638.747 C 2697.778 1636.809 2699.068 1635.617 2700.464 1635.149 C 2701.866 1634.679 2703.524 1634.905 2705.207 1635.545 C 2710.813 1638.136 2714.721 1644.06 2717.115 1655.775 C 2719.497 1667.435 2720.5 1684.986 2720.5 1711 L 2720.5 1778.52 L 2793.019 1781.5 C 2821.03 1782.501 2839.082 1784.005 2850.121 1786.765 C 2855.664 1788.151 2859.525 1789.889 2861.956 1792.031 C 2864.415 1794.199 2865.5 1796.907 2865.5 1800 C 2865.5 1803.084 2864.547 1805.73 2862.272 1807.778 C 2860.025 1809.801 2856.402 1811.354 2851.105 1812.489 C 2840.564 1814.748 2823.011 1815.5 2795 1815.5 L 2725.477 1815.5 L 2722.499 1878.024 L 2719.525 1939.5 L 2795 1939.5 C 2825.01 1939.5 2843.81 1940.252 2855.098 1942.51 C 2860.768 1943.644 2864.637 1945.192 2867.04 1947.211 C 2869.477 1949.257 2870.5 1951.91 2870.5 1955 C 2870.5 1958.1 2869.333 1960.769 2866.495 1962.812 C 2863.702 1964.823 2859.185 1966.361 2852.458 1967.493 C 2839.05 1969.749 2816.508 1970.5 2780 1970.5 L 2689.5 1970.5 Z M 2690.5 1969.5 L 2780 1969.5 C 2816.492 1969.5 2838.95 1968.751 2852.292 1966.507 C 2858.94 1965.389 2863.236 1963.927 2865.911 1962 C 2868.542 1960.106 2869.5 1957.9 2869.5 1955 C 2869.5 1952.09 2868.648 1949.868 2866.397 1947.977 C 2864.113 1946.058 2860.482 1944.606 2854.902 1943.49 C 2843.69 1941.248 2824.99 1940.5 2795 1940.5 L 2718.475 1940.5 L 2721.501 1877.976 L 2724.523 1814.5 L 2795 1814.5 C 2822.989 1814.5 2840.436 1813.752 2850.895 1811.511 C 2856.098 1810.396 2859.475 1808.949 2861.603 1807.035 C 2863.703 1805.145 2864.5 1802.916 2864.5 1800 C 2864.5 1797.093 2863.585 1794.801 2861.294 1792.781 C 2858.975 1790.736 2855.336 1789.099 2849.879 1787.735 C 2838.918 1784.995 2820.97 1783.499 2792.982 1782.5 L 2719.979 1779.5 L 2719.5 1779.48 L 2719.5 1711 C 2719.5 1685.014 2718.503 1667.565 2716.135 1655.975 C 2713.779 1644.44 2710.201 1638.871 2704.807 1636.462 C 2703.246 1635.855 2701.977 1635.696 2700.782 1636.097 C 2699.58 1636.5 2698.581 1637.426 2697.612 1639.222 C 2695.63 1642.894 2694.183 1649.762 2693.123 1661.42 C 2691 1684.776 2690.5 1727.003 2690.5 1800 Z"></path>
    <path d="M 3085 1970 L 3085 1805 L 3085 1640 L 3177.5 1640 L 3270 1640 L 3270 1655 L 3270 1670 L 3195 1670 L 3120 1670 L 3120 1820 L 3120 1970 L 3102.5 1970 Z"></path>
    <path d="M 3952 1898 C 3985.5 1778.5 4003.75 1715.25 4016.375 1681.5 C 4029 1647.75 4036 1643.5 4047 1642 C 4056.5 1640.5 4062.5 1642.25 4069.125 1654.125 C 4075.75 1666 4083 1688 4095 1727 C 4122 1817.5 4136.75 1866 4145.625 1890.25 C 4154.5 1914.5 4157.5 1914.5 4161 1908 C 4162.5 1904.5 4168.25 1887 4176.25 1861.625 C 4184.25 1836.25 4194.5 1803 4205 1768 C 4221.5 1712 4231.75 1680 4240.125 1662 C 4248.5 1644 4255 1640 4264 1640 C 4273.5 1640 4280 1644.5 4289 1665.875 C 4298 1687.25 4309.5 1725.5 4329 1793 C 4341 1834.5 4352.5 1874 4361.25 1904 C 4370 1934 4376 1954.5 4377 1958 C 4378.5 1961.5 4377.75 1964.5 4375.25 1966.625 C 4372.75 1968.75 4368.5 1970 4363 1970 C 4355.5 1970 4349.25 1964 4340.875 1943.5 C 4332.5 1923 4322 1888 4306 1830 C 4295 1791.5 4284.25 1757.25 4275.875 1733.125 C 4267.5 1709 4261.5 1695 4260 1697 C 4258 1699.5 4252 1716.5 4243.75 1742 C 4235.5 1767.5 4225 1801.5 4214 1838 C 4197.5 1895 4187.25 1928 4178.875 1946.75 C 4170.5 1965.5 4164 1970 4155 1970 C 4146.5 1970 4140.25 1965.25 4131.75 1945.875 C 4123.25 1926.5 4112.5 1892.5 4095 1834 C 4084.5 1797 4074 1762.75 4065.75 1737.5 C 4057.5 1712.25 4051.5 1696 4050 1695 C 4048.5 1694 4042.75 1708.75 4034.75 1733.375 C 4026.75 1758 4016.5 1792.5 4006 1831 C 3990 1886.5 3979.25 1921.25 3970.75 1942.125 C 3962.25 1963 3956 1970 3950 1970 C 3956 1970 3937 1969 3937.375 1959.5 C 3937.75 1950 3942.5 1932 3952 1898 Z"></path>
    <path d="M 4580 1970 L 4580 1805 L 4580 1640 L 4675 1640 L 4770 1640 L 4770 1655 L 4770 1670 L 4690 1670 L 4610 1670 L 4610 1730 L 4610 1790 L 4690 1790 L 4770 1790 L 4770 1805 L 4770 1820 L 4690 1820 L 4610 1820 L 4610 1880 L 4610 1940 L 4690 1940 L 4770 1940 L 4770 1955 L 4770 1970 L 4675 1970 Z"></path>
    <path d="M 4980 1805 L 4980 1637 L 5010 1637 L 5010 1770 L 5035.5 1770 L 5060 1770 L 5084.5 1770 L 5109 1770 L 5127 1737.5 L 5145 1705 C 5158 1682 5182 1637 5182 1637 L 5220 1637 C 5220 1637 5188.899 1690.401 5178 1711 C 5157 1751 5148 1770 5148 1770 C 5148 1770 5162 1781 5179 1798 C 5200.5 1819 5211.5 1844.25 5211.875 1869.5 C 5212.25 1894.75 5202 1919 5183 1940 C 5167 1955 5158.5 1962.25 5143.375 1966 C 5128.25 1969.75 5106.5 1970 5066 1970 L 5023 1970 L 4980 1970 L 4980 1888 L 4980 1805 Z M 5160 1920 C 5173 1907 5179.5 1889.5 5179.5 1871.75 C 5179.5 1854 5173 1836 5160 1822 C 5151.5 1813 5143.5 1807.5 5131 1804.25 C 5118.5 1801 5101.5 1800 5075 1800 L 5042.5 1800 L 5010 1800 L 5010 1835 L 5010 1870 L 5010 1905 L 5010 1940 L 5042.5 1940 L 5075 1940 C 5101 1940 5118.25 1939 5131 1936 C 5143.75 1933 5152 1928 5160 1920 Z"></path>
  </g>
</svg>